<?xml version="1.0" encoding="UTF-8" standalone="no"?>
<!DOCTYPE svg PUBLIC "-//W3C//DTD SVG 1.1//EN" "http://www.w3.org/Graphics/SVG/1.1/DTD/svg11.dtd">
<!-- Created with Vectornator (http://vectornator.io/) -->
<svg height="100%" stroke-miterlimit="10" style="fill-rule:nonzero;clip-rule:evenodd;stroke-linecap:round;stroke-linejoin:round;" version="1.1" viewBox="0 0 16 16" width="100%" xml:space="preserve" xmlns="http://www.w3.org/2000/svg" xmlns:vectornator="http://vectornator.io" xmlns:xlink="http://www.w3.org/1999/xlink">
<defs/>
<g id="Sans-titre" vectornator:layerName="Sans titre">
<path d="M8.5 3.00118C6.04375 3.00118 3.96562 4.61055 3.25937 6.8293C4.30938 6.29805 5.49375 6.00118 6.75 6.00118L9.5 6.00118C9.775 6.00118 10 6.22618 10 6.50118C10 6.77618 9.775 7.00118 9.5 7.00118L9 7.00118L6.75 7.00118L6.75 7.00118C6.23125 7.00118 5.72812 7.06055 5.24375 7.16993C4.43438 7.3543 3.68125 7.68243 3.0125 8.1293L3.0125 8.1293C1.19688 9.33868 0 11.4043 0 13.7512L0 14.2512C0 14.6668 0.334375 15.0012 0.75 15.0012C1.16563 15.0012 1.5 14.6668 1.5 14.2512L1.5 13.7512C1.5 12.2293 2.14688 10.8606 3.18125 9.90118C3.8 12.2606 5.94687 14.0012 8.5 14.0012L8.53125 14.0012C12.6594 13.9793 16 9.91055 16 4.89493C16 3.56368 15.7656 2.29805 15.3406 1.15743C15.2594 0.941801 14.9437 0.951176 14.8344 1.1543C14.2469 2.2543 13.0844 3.00118 11.75 3.00118L8.5 3.00118Z" fill="#00bc77" fill-rule="nonzero" opacity="1" stroke="none" vectornator:layerName="path"/>
</g>
</svg>
